<?xml version="1.0" encoding="UTF-8" standalone="no" ?>
<!DOCTYPE svg PUBLIC "-//W3C//DTD SVG 1.1//EN" "http://www.w3.org/Graphics/SVG/1.1/DTD/svg11.dtd">
<svg xmlns="http://www.w3.org/2000/svg" xmlns:xlink="http://www.w3.org/1999/xlink" version="1.1" width="640" height="480" viewBox="0 0 640 480" xml:space="preserve">
<desc>Created with Fabric.js 3.6.6</desc>
<defs>
</defs>
<g transform="matrix(1 0 0 1 153.67 176.67)"  >
<path style="stroke: rgb(0,0,0); stroke-width: 1; stroke-dasharray: none; stroke-linecap: round; stroke-dashoffset: 0; stroke-linejoin: round; stroke-miterlimit: 10; fill: none; fill-rule: nonzero; opacity: 1;"  transform=" translate(-153.67, -176.67)" d="M 153.66565649414062 176.66666412353516 L 153.66765649414063 176.66666412353516" stroke-linecap="round" />
</g>
<g transform="matrix(1 0 0 1 308.17 210.67)"  >
<path style="stroke: rgb(0,0,0); stroke-width: 1; stroke-dasharray: none; stroke-linecap: round; stroke-dashoffset: 0; stroke-linejoin: round; stroke-miterlimit: 10; fill: none; fill-rule: nonzero; opacity: 1;"  transform=" translate(-308.17, -210.67)" d="M 67.66565649414062 73.66566412353515 Q 67.66665649414062 73.66666412353516 68.16665649414062 73.66666412353516 Q 68.66665649414062 73.66666412353516 70.16665649414062 75.16666412353516 Q 71.66665649414062 76.66666412353516 74.16665649414062 78.66666412353516 Q 76.66665649414062 80.66666412353516 78.66665649414062 81.66666412353516 Q 80.66665649414062 82.66666412353516 83.16665649414062 83.66666412353516 Q 85.66665649414062 84.66666412353516 87.16665649414062 85.16666412353516 Q 88.66665649414062 85.66666412353516 91.16665649414062 85.66666412353516 Q 93.66665649414062 85.66666412353516 95.66665649414062 85.66666412353516 Q 97.66665649414062 85.66666412353516 100.16665649414062 85.66666412353516 Q 102.66665649414062 85.66666412353516 105.66665649414062 84.66666412353516 Q 108.66665649414062 83.66666412353516 114.16665649414062 82.16666412353516 Q 119.66665649414062 80.66666412353516 125.16665649414062 78.66666412353516 Q 130.66665649414062 76.66666412353516 135.16665649414062 74.16666412353516 Q 139.66665649414062 71.66666412353516 144.16665649414062 69.66666412353516 Q 148.66665649414062 67.66666412353516 154.16665649414062 65.66666412353516 Q 159.66665649414062 63.666664123535156 163.16665649414062 62.166664123535156 Q 166.66665649414062 60.666664123535156 168.66665649414062 60.666664123535156 Q 170.66665649414062 60.666664123535156 171.16665649414062 60.666664123535156 Q 171.66665649414062 60.666664123535156 172.16665649414062 60.666664123535156 Q 172.66665649414062 60.666664123535156 173.16665649414062 61.666664123535156 Q 173.66665649414062 62.666664123535156 173.66665649414062 64.16666412353516 Q 173.66665649414062 65.66666412353516 173.16665649414062 68.16666412353516 Q 172.66665649414062 70.66666412353516 171.16665649414062 74.66666412353516 Q 169.66665649414062 78.66666412353516 167.16665649414062 84.66666412353516 Q 164.66665649414062 90.66666412353516 162.16665649414062 94.66666412353516 Q 159.66665649414062 98.66666412353516 153.66665649414062 107.66666412353516 Q 147.66665649414062 116.66666412353516 143.66665649414062 122.16666412353516 Q 139.66665649414062 127.66666412353516 135.66665649414062 133.66666412353516 Q 131.66665649414062 139.66666412353516 128.66665649414062 145.16666412353516 Q 125.66665649414062 150.66666412353516 124.16665649414062 154.16666412353516 Q 122.66665649414062 157.66666412353516 122.66665649414062 159.16666412353516 Q 122.66665649414062 160.66666412353516 122.66665649414062 161.66666412353516 Q 122.66665649414062 162.66666412353516 122.66665649414062 163.66666412353516 Q 122.66665649414062 164.66666412353516 123.66665649414062 166.16666412353516 Q 124.66665649414062 167.66666412353516 126.16665649414062 168.16666412353516 Q 127.66665649414062 168.66666412353516 131.16665649414062 169.66666412353516 Q 134.66665649414062 170.66666412353516 139.66665649414062 171.66666412353516 Q 144.66665649414062 172.66666412353516 152.16665649414062 172.66666412353516 Q 159.66665649414062 172.66666412353516 169.66665649414062 172.66666412353516 Q 179.66665649414062 172.66666412353516 191.16665649414062 172.66666412353516 Q 202.66665649414062 172.66666412353516 216.66665649414062 172.66666412353516 Q 230.66665649414062 172.66666412353516 244.16665649414062 171.66666412353516 Q 257.6666564941406 170.66666412353516 270.1666564941406 168.66666412353516 Q 282.6666564941406 166.66666412353516 293.6666564941406 164.66666412353516 Q 304.6666564941406 162.66666412353516 314.1666564941406 161.16666412353516 Q 323.6666564941406 159.66666412353516 328.1666564941406 159.66666412353516 Q 332.6666564941406 159.66666412353516 333.6666564941406 159.66666412353516 Q 334.6666564941406 159.66666412353516 334.6666564941406 160.66666412353516 Q 334.6666564941406 161.66666412353516 333.1666564941406 164.66666412353516 Q 331.6666564941406 167.66666412353516 326.6666564941406 173.16666412353516 Q 321.6666564941406 178.66666412353516 318.6666564941406 182.16666412353516 Q 315.6666564941406 185.66666412353516 311.6666564941406 190.16666412353516 Q 307.6666564941406 194.66666412353516 299.6666564941406 201.66666412353516 Q 291.6666564941406 208.66666412353516 282.1666564941406 215.66666412353516 Q 272.6666564941406 222.66666412353516 259.6666564941406 230.16666412353516 Q 246.66665649414062 237.66666412353516 233.16665649414062 246.16666412353516 Q 219.66665649414062 254.66666412353516 207.16665649414062 264.66666412353516 Q 194.66665649414062 274.66666412353516 184.16665649414062 285.16666412353516 Q 173.66665649414062 295.66666412353516 165.66665649414062 305.16666412353516 Q 157.66665649414062 314.66666412353516 149.66665649414062 325.66666412353516 Q 141.66665649414062 336.66666412353516 140.16665649414062 340.16666412353516 Q 138.66665649414062 343.66666412353516 138.66665649414062 345.66666412353516 Q 138.66665649414062 347.66666412353516 140.16665649414062 349.66666412353516 Q 141.66665649414062 351.66666412353516 143.66665649414062 353.16666412353516 Q 145.66665649414062 354.66666412353516 148.66665649414062 356.66666412353516 Q 151.66665649414062 358.66666412353516 157.66665649414062 361.16666412353516 Q 163.66665649414062 363.66666412353516 168.16665649414062 365.16666412353516 Q 172.66665649414062 366.66666412353516 179.16665649414062 368.16666412353516 Q 185.66665649414062 369.66666412353516 194.16665649414062 370.16666412353516 Q 202.66665649414062 370.66666412353516 214.16665649414062 370.66666412353516 Q 225.66665649414062 370.66666412353516 239.66665649414062 370.66666412353516 Q 253.66665649414062 370.66666412353516 278.1666564941406 364.66666412353516 Q 302.6666564941406 358.66666412353516 322.1666564941406 352.16666412353516 Q 341.6666564941406 345.66666412353516 359.6666564941406 337.16666412353516 Q 377.6666564941406 328.66666412353516 394.6666564941406 319.16666412353516 Q 411.6666564941406 309.66666412353516 424.1666564941406 301.66666412353516 Q 436.6666564941406 293.66666412353516 447.1666564941406 286.16666412353516 Q 457.6666564941406 278.66666412353516 465.6666564941406 272.66666412353516 Q 473.6666564941406 266.66666412353516 478.6666564941406 263.16666412353516 Q 483.6666564941406 259.66666412353516 483.6666564941406 257.66666412353516 Q 483.6666564941406 255.66666412353516 483.6666564941406 255.16666412353516 Q 483.6666564941406 254.66666412353516 481.1666564941406 254.66666412353516 Q 478.6666564941406 254.66666412353516 474.6666564941406 254.66666412353516 Q 470.6666564941406 254.66666412353516 458.1666564941406 256.16666412353516 Q 445.6666564941406 257.66666412353516 433.1666564941406 257.66666412353516 Q 420.6666564941406 257.66666412353516 403.1666564941406 257.66666412353516 Q 385.6666564941406 257.66666412353516 366.6666564941406 257.66666412353516 Q 347.6666564941406 257.66666412353516 333.6666564941406 257.66666412353516 Q 319.6666564941406 257.66666412353516 309.1666564941406 257.66666412353516 Q 298.6666564941406 257.66666412353516 290.6666564941406 257.66666412353516 Q 282.6666564941406 257.66666412353516 276.1666564941406 257.66666412353516 Q 269.6666564941406 257.66666412353516 265.1666564941406 258.16666412353516 Q 260.6666564941406 258.66666412353516 260.1666564941406 259.66666412353516 Q 259.6666564941406 260.66666412353516 260.6666564941406 260.66666412353516 Q 261.6666564941406 260.66666412353516 266.6666564941406 260.16666412353516 Q 271.6666564941406 259.66666412353516 275.6666564941406 258.66666412353516 Q 279.6666564941406 257.66666412353516 288.6666564941406 254.16666412353516 Q 297.6666564941406 250.66666412353516 309.1666564941406 246.66666412353516 Q 320.6666564941406 242.66666412353516 337.6666564941406 235.66666412353516 Q 354.6666564941406 228.66666412353516 372.1666564941406 222.16666412353516 Q 389.6666564941406 215.66666412353516 405.6666564941406 208.66666412353516 Q 421.6666564941406 201.66666412353516 439.6666564941406 192.66666412353516 Q 457.6666564941406 183.66666412353516 473.1666564941406 175.16666412353516 Q 488.6666564941406 166.66666412353516 501.1666564941406 160.16666412353516 Q 513.6666564941406 153.66666412353516 521.6666564941406 148.16666412353516 Q 529.6666564941406 142.66666412353516 536.6666564941406 138.66666412353516 Q 543.6666564941406 134.66666412353516 546.1666564941406 131.66666412353516 Q 548.6666564941406 128.66666412353516 548.6666564941406 127.66666412353516 Q 548.6666564941406 126.66666412353516 548.6666564941406 124.66666412353516 Q 548.6666564941406 122.66666412353516 546.6666564941406 120.66666412353516 Q 544.6666564941406 118.66666412353516 541.6666564941406 116.16666412353516 Q 538.6666564941406 113.66666412353516 535.1666564941406 112.16666412353516 Q 531.6666564941406 110.66666412353516 525.6666564941406 109.66666412353516 Q 519.6666564941406 108.66666412353516 510.6666564941406 107.66666412353516 Q 501.6666564941406 106.66666412353516 489.6666564941406 105.16666412353516 Q 477.6666564941406 103.66666412353516 464.1666564941406 103.66666412353516 Q 450.6666564941406 103.66666412353516 436.1666564941406 103.16666412353516 Q 421.6666564941406 102.66666412353516 408.6666564941406 102.16666412353516 Q 395.6666564941406 101.66666412353516 378.6666564941406 100.66666412353516 Q 361.6666564941406 99.66666412353516 353.6666564941406 99.16666412353516 Q 345.6666564941406 98.66666412353516 339.6666564941406 98.16666412353516 Q 333.6666564941406 97.66666412353516 332.6666564941406 97.66666412353516 Q 331.6666564941406 97.66666412353516 331.6666564941406 97.16666412353516 Q 331.6666564941406 96.66666412353516 331.6666564941406 96.16666412353516 Q 331.6666564941406 95.66666412353516 331.6666564941406 95.16666412353516 Q 331.6666564941406 94.66666412353516 331.6666564941406 93.66666412353516 Q 331.6666564941406 92.66666412353516 332.6666564941406 90.16666412353516 Q 333.6666564941406 87.66666412353516 337.1666564941406 83.66666412353516 Q 340.6666564941406 79.66666412353516 344.1666564941406 74.16666412353516 Q 347.6666564941406 68.66666412353516 351.6666564941406 63.666664123535156 Q 355.6666564941406 58.666664123535156 358.1666564941406 55.666664123535156 Q 360.6666564941406 52.666664123535156 360.6666564941406 51.666664123535156 Q 360.6666564941406 50.666664123535156 359.1666564941406 50.666664123535156 Q 357.6666564941406 50.666664123535156 354.6666564941406 50.666664123535156 Q 351.6666564941406 50.666664123535156 350.6666564941406 50.666664123535156 Q 349.6666564941406 50.666664123535156 341.6666564941406 52.166664123535156 Q 333.6666564941406 53.666664123535156 325.1666564941406 54.666664123535156 Q 316.6666564941406 55.666664123535156 307.1666564941406 57.666664123535156 Q 297.6666564941406 59.666664123535156 285.6666564941406 60.166664123535156 Q 273.6666564941406 60.666664123535156 262.6666564941406 61.666664123535156 Q 251.66665649414062 62.666664123535156 242.66665649414062 62.666664123535156 Q 233.66665649414062 62.666664123535156 225.66665649414062 63.666664123535156 Q 217.66665649414062 64.66666412353516 210.66665649414062 66.66666412353516 Q 203.66665649414062 68.66666412353516 198.16665649414062 70.16666412353516 Q 192.66665649414062 71.66666412353516 189.16665649414062 73.16666412353516 Q 185.66665649414062 74.66666412353516 185.66665649414062 76.16666412353516 Q 185.66665649414062 77.66666412353516 186.66665649414062 78.16666412353516 Q 187.66665649414062 78.66666412353516 189.66665649414062 78.66666412353516 Q 191.66665649414062 78.66666412353516 196.66665649414062 78.66666412353516 Q 201.66665649414062 78.66666412353516 210.66665649414062 78.66666412353516 Q 219.66665649414062 78.66666412353516 230.16665649414062 78.66666412353516 Q 240.66665649414062 78.66666412353516 254.16665649414062 80.16666412353516 Q 267.6666564941406 81.66666412353516 279.1666564941406 83.66666412353516 Q 290.6666564941406 85.66666412353516 299.1666564941406 88.16666412353516 Q 307.6666564941406 90.66666412353516 312.1666564941406 92.16666412353516 Q 316.6666564941406 93.66666412353516 317.6666564941406 95.16666412353516 Q 318.6666564941406 96.66666412353516 318.1666564941406 102.66666412353516 Q 317.6666564941406 108.66666412353516 313.6666564941406 113.66666412353516 Q 309.6666564941406 118.66666412353516 305.6666564941406 121.66666412353516 Q 301.6666564941406 124.66666412353516 293.6666564941406 129.16666412353516 Q 285.6666564941406 133.66666412353516 276.1666564941406 138.16666412353516 Q 266.6666564941406 142.66666412353516 255.66665649414062 146.66666412353516 Q 244.66665649414062 150.66666412353516 234.16665649414062 153.16666412353516 Q 223.66665649414062 155.66666412353516 214.66665649414062 158.16666412353516 Q 205.66665649414062 160.66666412353516 200.66665649414062 162.16666412353516 L 195.66565649414062 163.66766412353516" stroke-linecap="round" />
</g>
<g transform="matrix(1 0 0 1 345.32 260.17)"  >
<path style="stroke: rgb(0,0,0); stroke-width: 1; stroke-dasharray: none; stroke-linecap: round; stroke-dashoffset: 0; stroke-linejoin: round; stroke-miterlimit: 10; fill: none; fill-rule: nonzero; opacity: 1;"  transform=" translate(-345.32, -260.17)" d="M 234.66565649414062 230.66666412353516 Q 234.66665649414062 230.66666412353516 234.66665649414062 231.16666412353516 Q 234.66665649414062 231.66666412353516 235.16665649414062 231.66666412353516 Q 235.66665649414062 231.66666412353516 234.16665649414062 232.16666412353516 Q 232.66665649414062 232.66666412353516 229.66665649414062 233.16666412353516 Q 226.66665649414062 233.66666412353516 220.16665649414062 234.16666412353516 Q 213.66665649414062 234.66666412353516 203.66665649414062 235.66666412353516 Q 193.66665649414062 236.66666412353516 182.16665649414062 237.66666412353516 Q 170.66665649414062 238.66666412353516 160.66665649414062 238.66666412353516 Q 150.66665649414062 238.66666412353516 143.16665649414062 239.66666412353516 Q 135.66665649414062 240.66666412353516 129.66665649414062 240.66666412353516 Q 123.66665649414062 240.66666412353516 114.66665649414062 242.16666412353516 Q 105.66665649414062 243.66666412353516 99.66665649414062 245.16666412353516 Q 93.66665649414062 246.66666412353516 88.66665649414062 248.16666412353516 Q 83.66665649414062 249.66666412353516 81.66665649414062 250.66666412353516 Q 79.66665649414062 251.66666412353516 79.16665649414062 252.66666412353516 Q 78.66665649414062 253.66666412353516 78.66665649414062 254.16666412353516 Q 78.66665649414062 254.66666412353516 81.66665649414062 254.66666412353516 Q 84.66665649414062 254.66666412353516 88.66665649414062 254.66666412353516 Q 92.66665649414062 254.66666412353516 100.16665649414062 253.66666412353516 Q 107.66665649414062 252.66666412353516 119.66665649414062 251.66666412353516 Q 131.66665649414062 250.66666412353516 148.16665649414062 250.66666412353516 Q 164.66665649414062 250.66666412353516 180.16665649414062 250.66666412353516 Q 195.66665649414062 250.66666412353516 211.16665649414062 250.66666412353516 Q 226.66665649414062 250.66666412353516 230.66665649414062 250.66666412353516 Q 234.66665649414062 250.66666412353516 235.16665649414062 251.66666412353516 Q 235.66665649414062 252.66666412353516 235.66665649414062 253.16666412353516 Q 235.66665649414062 253.66666412353516 233.66665649414062 255.66666412353516 Q 231.66665649414062 257.66666412353516 227.16665649414062 261.16666412353516 Q 222.66665649414062 264.66666412353516 218.16665649414062 266.66666412353516 Q 213.66665649414062 268.66666412353516 206.66665649414062 272.66666412353516 Q 199.66665649414062 276.66666412353516 188.66665649414062 282.66666412353516 Q 177.66665649414062 288.66666412353516 165.16665649414062 294.16666412353516 Q 152.66665649414062 299.66666412353516 138.16665649414062 305.16666412353516 Q 123.66665649414062 310.66666412353516 112.16665649414062 316.16666412353516 Q 100.66665649414062 321.66666412353516 86.66665649414062 329.16666412353516 Q 72.66665649414062 336.66666412353516 67.16665649414062 341.16666412353516 Q 61.666656494140625 345.66666412353516 58.666656494140625 349.16666412353516 Q 55.666656494140625 352.66666412353516 55.166656494140625 355.66666412353516 Q 54.666656494140625 358.66666412353516 54.666656494140625 360.16666412353516 Q 54.666656494140625 361.66666412353516 57.166656494140625 363.66666412353516 Q 59.666656494140625 365.66666412353516 65.16665649414062 367.16666412353516 Q 70.66665649414062 368.66666412353516 82.16665649414062 370.16666412353516 Q 93.66665649414062 371.66666412353516 111.16665649414062 371.66666412353516 Q 128.66665649414062 371.66666412353516 153.16665649414062 371.66666412353516 Q 177.66665649414062 371.66666412353516 208.66665649414062 371.66666412353516 Q 239.66665649414062 371.66666412353516 268.6666564941406 371.66666412353516 Q 297.6666564941406 371.66666412353516 317.1666564941406 372.16666412353516 Q 336.6666564941406 372.66666412353516 352.6666564941406 375.66666412353516 Q 368.6666564941406 378.66666412353516 372.6666564941406 380.16666412353516 Q 376.6666564941406 381.66666412353516 377.1666564941406 382.16666412353516 Q 377.6666564941406 382.66666412353516 378.1666564941406 384.16666412353516 Q 378.6666564941406 385.66666412353516 378.1666564941406 386.66666412353516 Q 377.6666564941406 387.66666412353516 376.1666564941406 389.16666412353516 Q 374.6666564941406 390.66666412353516 369.1666564941406 394.16666412353516 Q 363.6666564941406 397.66666412353516 359.6666564941406 399.66666412353516 Q 355.6666564941406 401.66666412353516 345.6666564941406 407.66666412353516 Q 335.6666564941406 413.66666412353516 319.6666564941406 422.16666412353516 Q 303.6666564941406 430.66666412353516 284.6666564941406 439.66666412353516 Q 265.6666564941406 448.66666412353516 249.66665649414062 456.16666412353516 Q 233.66665649414062 463.66666412353516 216.16665649414062 471.16666412353516 Q 198.66665649414062 478.66666412353516 192.66665649414062 481.66666412353516 Q 186.66665649414062 484.66666412353516 186.16665649414062 485.16666412353516 Q 185.66665649414062 485.66666412353516 185.66665649414062 486.16666412353516 Q 185.66665649414062 486.66666412353516 187.16665649414062 487.66666412353516 Q 188.66665649414062 488.66666412353516 193.66665649414062 490.16666412353516 Q 198.66665649414062 491.66666412353516 203.66665649414062 492.66666412353516 Q 208.66665649414062 493.66666412353516 220.16665649414062 493.66666412353516 Q 231.66665649414062 493.66666412353516 249.16665649414062 493.66666412353516 Q 266.6666564941406 493.66666412353516 287.1666564941406 493.66666412353516 Q 307.6666564941406 493.66666412353516 332.6666564941406 493.16666412353516 Q 357.6666564941406 492.66666412353516 380.6666564941406 489.16666412353516 Q 403.6666564941406 485.66666412353516 434.1666564941406 476.16666412353516 Q 464.6666564941406 466.66666412353516 478.1666564941406 462.16666412353516 Q 491.6666564941406 457.66666412353516 502.6666564941406 454.16666412353516 Q 513.6666564941406 450.66666412353516 517.6666564941406 449.66666412353516 Q 521.6666564941406 448.66666412353516 522.6666564941406 447.66666412353516 Q 523.6666564941406 446.66666412353516 523.6666564941406 446.16666412353516 Q 523.6666564941406 445.66666412353516 524.1666564941406 444.16666412353516 Q 524.6666564941406 442.66666412353516 525.1666564941406 440.16666412353516 Q 525.6666564941406 437.66666412353516 527.6666564941406 431.16666412353516 Q 529.6666564941406 424.66666412353516 533.6666564941406 417.66666412353516 Q 537.6666564941406 410.66666412353516 539.6666564941406 404.16666412353516 Q 541.6666564941406 397.66666412353516 543.6666564941406 392.66666412353516 Q 545.6666564941406 387.66666412353516 547.1666564941406 381.16666412353516 Q 548.6666564941406 374.66666412353516 548.1666564941406 370.66666412353516 Q 547.6666564941406 366.66666412353516 545.1666564941406 363.16666412353516 Q 542.6666564941406 359.66666412353516 538.1666564941406 356.16666412353516 Q 533.6666564941406 352.66666412353516 526.6666564941406 350.16666412353516 Q 519.6666564941406 347.66666412353516 505.6666564941406 346.66666412353516 Q 491.6666564941406 345.66666412353516 471.1666564941406 345.66666412353516 Q 450.6666564941406 345.66666412353516 428.6666564941406 345.66666412353516 Q 406.6666564941406 345.66666412353516 391.6666564941406 345.66666412353516 Q 376.6666564941406 345.66666412353516 369.1666564941406 345.66666412353516 Q 361.6666564941406 345.66666412353516 361.1666564941406 344.66666412353516 Q 360.6666564941406 343.66666412353516 361.6666564941406 338.66666412353516 Q 362.6666564941406 333.66666412353516 367.1666564941406 330.16666412353516 Q 371.6666564941406 326.66666412353516 379.6666564941406 322.66666412353516 Q 387.6666564941406 318.66666412353516 405.6666564941406 310.66666412353516 Q 423.6666564941406 302.66666412353516 450.6666564941406 293.16666412353516 Q 477.6666564941406 283.66666412353516 507.1666564941406 271.16666412353516 Q 536.6666564941406 258.66666412353516 561.1666564941406 246.66666412353516 Q 585.6666564941406 234.66666412353516 603.6666564941406 225.66666412353516 Q 621.6666564941406 216.66666412353516 632.6666564941406 209.66666412353516 Q 643.6666564941406 202.66666412353516 649.1666564941406 198.66666412353516 Q 654.6666564941406 194.66666412353516 655.1666564941406 191.66666412353516 Q 655.6666564941406 188.66666412353516 655.6666564941406 185.66666412353516 Q 655.6666564941406 182.66666412353516 653.6666564941406 176.16666412353516 Q 651.6666564941406 169.66666412353516 650.6666564941406 166.66666412353516 Q 649.6666564941406 163.66666412353516 645.6666564941406 151.66666412353516 Q 641.6666564941406 139.66666412353516 638.1666564941406 131.16666412353516 Q 634.6666564941406 122.66666412353516 631.1666564941406 115.16666412353516 Q 627.6666564941406 107.66666412353516 623.6666564941406 102.66666412353516 Q 619.6666564941406 97.66666412353516 615.6666564941406 95.16666412353516 Q 611.6666564941406 92.66666412353516 604.6666564941406 91.16666412353516 Q 597.6666564941406 89.66666412353516 590.1666564941406 89.66666412353516 Q 582.6666564941406 89.66666412353516 573.1666564941406 91.16666412353516 Q 563.6666564941406 92.66666412353516 552.6666564941406 95.66666412353516 Q 541.6666564941406 98.66666412353516 531.6666564941406 100.16666412353516 Q 521.6666564941406 101.66666412353516 512.6666564941406 101.66666412353516 Q 503.6666564941406 101.66666412353516 488.6666564941406 101.66666412353516 Q 473.6666564941406 101.66666412353516 466.1666564941406 101.16666412353516 Q 458.6666564941406 100.66666412353516 454.6666564941406 98.66666412353516 Q 450.6666564941406 96.66666412353516 449.6666564941406 95.66666412353516 Q 448.6666564941406 94.66666412353516 448.6666564941406 94.16666412353516 Q 448.6666564941406 93.66666412353516 448.6666564941406 91.16666412353516 Q 448.6666564941406 88.66666412353516 450.6666564941406 85.16666412353516 Q 452.6666564941406 81.66666412353516 458.1666564941406 77.16666412353516 Q 463.6666564941406 72.66666412353516 469.6666564941406 67.66666412353516 Q 475.6666564941406 62.666664123535156 484.6666564941406 56.666664123535156 Q 493.6666564941406 50.666664123535156 500.6666564941406 45.666664123535156 Q 507.6666564941406 40.666664123535156 513.1666564941406 35.666664123535156 Q 518.6666564941406 30.666664123535156 519.6666564941406 29.166664123535156 Q 520.6666564941406 27.666664123535156 520.1666564941406 27.666664123535156 Q 519.6666564941406 27.666664123535156 516.1666564941406 27.666664123535156 Q 512.6666564941406 27.666664123535156 504.6666564941406 27.666664123535156 Q 496.6666564941406 27.666664123535156 485.1666564941406 27.666664123535156 Q 473.6666564941406 27.666664123535156 459.6666564941406 27.166664123535156 Q 445.6666564941406 26.666664123535156 431.6666564941406 26.666664123535156 Q 417.6666564941406 26.666664123535156 402.1666564941406 26.666664123535156 Q 386.6666564941406 26.666664123535156 371.6666564941406 26.666664123535156 Q 356.6666564941406 26.666664123535156 342.6666564941406 28.666664123535156 Q 328.6666564941406 30.666664123535156 312.1666564941406 33.166664123535156 Q 295.6666564941406 35.666664123535156 273.6666564941406 39.666664123535156 Q 251.66665649414062 43.666664123535156 237.66665649414062 47.166664123535156 Q 223.66665649414062 50.666664123535156 212.66665649414062 53.666664123535156 Q 201.66665649414062 56.666664123535156 189.66665649414062 60.666664123535156 Q 177.66665649414062 64.66666412353516 169.66665649414062 67.66666412353516 Q 161.66665649414062 70.66666412353516 159.66665649414062 71.66666412353516 Q 157.66665649414062 72.66666412353516 158.66665649414062 71.66666412353516 Q 159.66665649414062 70.66666412353516 163.16665649414062 67.66666412353516 Q 166.66665649414062 64.66666412353516 170.16665649414062 62.666664123535156 Q 173.66665649414062 60.666664123535156 181.16665649414062 57.666664123535156 Q 188.66665649414062 54.666664123535156 198.66665649414062 51.666664123535156 Q 208.66665649414062 48.666664123535156 211.16665649414062 48.666664123535156 Q 213.66665649414062 48.666664123535156 213.66665649414062 50.666664123535156 Q 213.66665649414062 52.666664123535156 213.66665649414062 54.666664123535156 Q 213.66665649414062 56.666664123535156 210.66665649414062 60.666664123535156 Q 207.66665649414062 64.66666412353516 203.66665649414062 68.66666412353516 Q 199.66665649414062 72.66666412353516 191.66665649414062 79.66666412353516 Q 183.66665649414062 86.66666412353516 174.66665649414062 94.66666412353516 Q 165.66665649414062 102.66666412353516 154.66665649414062 112.16666412353516 Q 143.66665649414062 121.66666412353516 129.66665649414062 132.66666412353516 Q 115.66665649414062 143.66666412353516 111.66665649414062 147.16666412353516 Q 107.66665649414062 150.66666412353516 95.66665649414062 162.16666412353516 Q 83.66665649414062 173.66666412353516 76.66665649414062 181.66666412353516 Q 69.66665649414062 189.66666412353516 64.66665649414062 197.16666412353516 Q 59.666656494140625 204.66666412353516 56.666656494140625 211.16666412353516 Q 53.666656494140625 217.66666412353516 53.666656494140625 220.16666412353516 Q 53.666656494140625 222.66666412353516 55.166656494140625 224.66666412353516 Q 56.666656494140625 226.66666412353516 60.166656494140625 229.16666412353516 Q 63.666656494140625 231.66666412353516 67.16665649414062 232.16666412353516 Q 70.66665649414062 232.66666412353516 76.16665649414062 232.66666412353516 Q 81.66665649414062 232.66666412353516 89.66665649414062 233.16666412353516 Q 97.66665649414062 233.66666412353516 104.66665649414062 234.66666412353516 Q 111.66665649414062 235.66666412353516 116.16665649414062 238.16666412353516 Q 120.66665649414062 240.66666412353516 121.16665649414062 242.66666412353516 Q 121.66665649414062 244.66666412353516 121.66665649414062 246.66666412353516 Q 121.66665649414062 248.66666412353516 120.66665649414062 253.16666412353516 Q 119.66665649414062 257.66666412353516 115.66665649414062 266.16666412353516 Q 111.66665649414062 274.66666412353516 104.66665649414062 286.66666412353516 Q 97.66665649414062 298.66666412353516 88.66665649414062 312.16666412353516 Q 79.66665649414062 325.66666412353516 72.16665649414062 335.16666412353516 Q 64.66665649414062 344.66666412353516 58.166656494140625 352.66666412353516 Q 51.666656494140625 360.66666412353516 47.166656494140625 366.66666412353516 Q 42.666656494140625 372.66666412353516 40.166656494140625 378.16666412353516 Q 37.666656494140625 383.66666412353516 36.166656494140625 388.66666412353516 Q 34.666656494140625 393.66666412353516 35.666656494140625 397.16666412353516 Q 36.666656494140625 400.66666412353516 42.166656494140625 404.16666412353516 Q 47.666656494140625 407.66666412353516 53.166656494140625 408.66666412353516 Q 58.666656494140625 409.66666412353516 64.66665649414062 410.16666412353516 Q 70.66665649414062 410.66666412353516 85.66665649414062 411.16666412353516 Q 100.66665649414062 411.66666412353516 121.16665649414062 411.66666412353516 Q 141.66665649414062 411.66666412353516 162.66665649414062 411.16666412353516 Q 183.66665649414062 410.66666412353516 204.66665649414062 409.66666412353516 Q 225.66665649414062 408.66666412353516 242.16665649414062 407.66666412353516 Q 258.6666564941406 406.66666412353516 270.1666564941406 406.66666412353516 Q 281.6666564941406 406.66666412353516 290.1666564941406 405.66666412353516 Q 298.6666564941406 404.66666412353516 300.1666564941406 404.66666412353516 Q 301.6666564941406 404.66666412353516 302.1666564941406 404.66666412353516 Q 302.6666564941406 404.66666412353516 302.6666564941406 406.66666412353516 Q 302.6666564941406 408.66666412353516 301.1666564941406 412.66666412353516 Q 299.6666564941406 416.66666412353516 296.6666564941406 422.16666412353516 Q 293.6666564941406 427.66666412353516 289.6666564941406 435.16666412353516 Q 285.6666564941406 442.66666412353516 281.6666564941406 451.66666412353516 Q 277.6666564941406 460.66666412353516 274.6666564941406 467.16666412353516 Q 271.6666564941406 473.66666412353516 270.6666564941406 477.16666412353516 Q 269.6666564941406 480.66666412353516 269.6666564941406 481.16666412353516 Q 269.6666564941406 481.66666412353516 269.6666564941406 482.16666412353516 Q 269.6666564941406 482.66666412353516 272.6666564941406 483.66666412353516 Q 275.6666564941406 484.66666412353516 281.6666564941406 484.66666412353516 Q 287.6666564941406 484.66666412353516 291.6666564941406 484.66666412353516 Q 295.6666564941406 484.66666412353516 309.6666564941406 483.16666412353516 Q 323.6666564941406 481.66666412353516 336.6666564941406 479.16666412353516 Q 349.6666564941406 476.66666412353516 364.6666564941406 473.66666412353516 Q 379.6666564941406 470.66666412353516 397.6666564941406 468.16666412353516 Q 415.6666564941406 465.66666412353516 433.6666564941406 464.16666412353516 Q 451.6666564941406 462.66666412353516 468.1666564941406 459.66666412353516 Q 484.6666564941406 456.66666412353516 501.6666564941406 453.16666412353516 Q 518.6666564941406 449.66666412353516 533.1666564941406 444.16666412353516 Q 547.6666564941406 438.66666412353516 558.6666564941406 432.66666412353516 Q 569.6666564941406 426.66666412353516 576.1666564941406 421.66666412353516 Q 582.6666564941406 416.66666412353516 585.1666564941406 411.16666412353516 Q 587.6666564941406 405.66666412353516 588.1666564941406 400.16666412353516 Q 588.6666564941406 394.66666412353516 588.1666564941406 390.66666412353516 Q 587.6666564941406 386.66666412353516 587.6666564941406 383.66666412353516 Q 587.6666564941406 380.66666412353516 586.6666564941406 374.66666412353516 Q 585.6666564941406 368.66666412353516 584.1666564941406 356.66666412353516 Q 582.6666564941406 344.66666412353516 580.1666564941406 330.16666412353516 Q 577.6666564941406 315.66666412353516 574.6666564941406 304.16666412353516 Q 571.6666564941406 292.66666412353516 567.6666564941406 284.16666412353516 Q 563.6666564941406 275.66666412353516 561.6666564941406 274.16666412353516 Q 559.6666564941406 272.66666412353516 558.1666564941406 272.66666412353516 Q 556.6666564941406 272.66666412353516 554.1666564941406 272.66666412353516 Q 551.6666564941406 272.66666412353516 547.6666564941406 274.16666412353516 Q 543.6666564941406 275.66666412353516 540.6666564941406 277.16666412353516 Q 537.6666564941406 278.66666412353516 532.6666564941406 282.66666412353516 Q 527.6666564941406 286.66666412353516 526.6666564941406 288.16666412353516 Q 525.6666564941406 289.66666412353516 525.1666564941406 290.16666412353516 Q 524.6666564941406 290.66666412353516 523.6666564941406 289.66666412353516 L 522.6656564941406 288.6656641235352" stroke-linecap="round" />
</g>
<g transform="matrix(1 0 0 1 254.68 228.17)"  >
<path style="stroke: rgb(0,0,0); stroke-width: 1; stroke-dasharray: none; stroke-linecap: round; stroke-dashoffset: 0; stroke-linejoin: round; stroke-miterlimit: 10; fill: none; fill-rule: nonzero; opacity: 1;"  transform=" translate(-254.68, -228.17)" d="M 221.66565649414062 205.66766412353516 Q 221.66665649414062 205.66666412353516 226.66665649414062 203.16666412353516 Q 231.66665649414062 200.66666412353516 243.66665649414062 195.66666412353516 Q 255.66665649414062 190.66666412353516 268.6666564941406 186.16666412353516 Q 281.6666564941406 181.66666412353516 294.1666564941406 179.16666412353516 Q 306.6666564941406 176.66666412353516 316.1666564941406 174.66666412353516 Q 325.6666564941406 172.66666412353516 333.1666564941406 172.66666412353516 Q 340.6666564941406 172.66666412353516 346.6666564941406 172.66666412353516 Q 352.6666564941406 172.66666412353516 358.1666564941406 173.66666412353516 Q 363.6666564941406 174.66666412353516 369.1666564941406 176.66666412353516 Q 374.6666564941406 178.66666412353516 378.1666564941406 181.66666412353516 Q 381.6666564941406 184.66666412353516 383.1666564941406 187.66666412353516 Q 384.6666564941406 190.66666412353516 385.1666564941406 195.66666412353516 Q 385.6666564941406 200.66666412353516 384.1666564941406 206.66666412353516 Q 382.6666564941406 212.66666412353516 377.1666564941406 221.16666412353516 Q 371.6666564941406 229.66666412353516 363.6666564941406 238.16666412353516 Q 355.6666564941406 246.66666412353516 346.6666564941406 254.16666412353516 Q 337.6666564941406 261.66666412353516 330.6666564941406 268.16666412353516 Q 323.6666564941406 274.66666412353516 319.6666564941406 278.16666412353516 Q 315.6666564941406 281.66666412353516 314.6666564941406 283.16666412353516 Q 313.6666564941406 284.66666412353516 313.6666564941406 285.66666412353516 Q 313.6666564941406 286.66666412353516 315.6666564941406 288.16666412353516 Q 317.6666564941406 289.66666412353516 320.1666564941406 291.16666412353516 Q 322.6666564941406 292.66666412353516 328.1666564941406 293.66666412353516 Q 333.6666564941406 294.66666412353516 339.6666564941406 296.16666412353516 Q 345.6666564941406 297.66666412353516 350.6666564941406 300.66666412353516 Q 355.6666564941406 303.66666412353516 358.6666564941406 306.66666412353516 Q 361.6666564941406 309.66666412353516 363.6666564941406 314.16666412353516 Q 365.6666564941406 318.66666412353516 365.6666564941406 321.66666412353516 Q 365.6666564941406 324.66666412353516 365.1666564941406 328.16666412353516 Q 364.6666564941406 331.66666412353516 359.6666564941406 336.16666412353516 Q 354.6666564941406 340.66666412353516 346.1666564941406 345.66666412353516 Q 337.6666564941406 350.66666412353516 325.6666564941406 353.66666412353516 Q 313.6666564941406 356.66666412353516 299.6666564941406 359.66666412353516 Q 285.6666564941406 362.66666412353516 272.6666564941406 363.16666412353516 Q 259.6666564941406 363.66666412353516 243.66665649414062 362.66666412353516 Q 227.66665649414062 361.66666412353516 213.16665649414062 358.16666412353516 Q 198.66665649414062 354.66666412353516 178.16665649414062 346.16666412353516 Q 157.66665649414062 337.66666412353516 146.66665649414062 330.66666412353516 Q 135.66665649414062 323.66666412353516 125.66665649414062 316.16666412353516 Q 115.66665649414062 308.66666412353516 108.66665649414062 302.16666412353516 Q 101.66665649414062 295.66666412353516 98.66665649414062 289.16666412353516 Q 95.66665649414062 282.66666412353516 95.16665649414062 277.66666412353516 Q 94.66665649414062 272.66666412353516 98.16665649414062 267.16666412353516 Q 101.66665649414062 261.66666412353516 112.66665649414062 255.16666412353516 Q 123.66665649414062 248.66666412353516 139.66665649414062 242.16666412353516 Q 155.66665649414062 235.66666412353516 173.16665649414062 229.16666412353516 Q 190.66665649414062 222.66666412353516 204.16665649414062 217.16666412353516 Q 217.66665649414062 211.66666412353516 227.66665649414062 207.16666412353516 Q 237.66665649414062 202.66666412353516 240.66665649414062 200.66666412353516 Q 243.66665649414062 198.66666412353516 242.66665649414062 198.66666412353516 Q 241.66665649414062 198.66666412353516 238.66665649414062 196.66666412353516 Q 235.66665649414062 194.66666412353516 233.66665649414062 192.66666412353516 Q 231.66665649414062 190.66666412353516 228.16665649414062 186.66666412353516 Q 224.66665649414062 182.66666412353516 222.16665649414062 178.66666412353516 Q 219.66665649414062 174.66666412353516 217.66665649414062 170.16666412353516 Q 215.66665649414062 165.66666412353516 213.66665649414062 162.16666412353516 Q 211.66665649414062 158.66666412353516 211.16665649414062 156.16666412353516 Q 210.66665649414062 153.66666412353516 210.66665649414062 150.66666412353516 Q 210.66665649414062 147.66666412353516 211.16665649414062 145.16666412353516 Q 211.66665649414062 142.66666412353516 215.16665649414062 138.66666412353516 Q 218.66665649414062 134.66666412353516 222.66665649414062 131.66666412353516 Q 226.66665649414062 128.66666412353516 231.66665649414062 126.16666412353516 Q 236.66665649414062 123.66666412353516 242.16665649414062 121.66666412353516 Q 247.66665649414062 119.66666412353516 251.16665649414062 119.16666412353516 Q 254.66665649414062 118.66666412353516 258.6666564941406 118.66666412353516 Q 262.6666564941406 118.66666412353516 268.6666564941406 118.66666412353516 Q 274.6666564941406 118.66666412353516 281.1666564941406 118.66666412353516 Q 287.6666564941406 118.66666412353516 292.6666564941406 119.66666412353516 Q 297.6666564941406 120.66666412353516 299.6666564941406 121.66666412353516 Q 301.6666564941406 122.66666412353516 302.1666564941406 125.66666412353516 Q 302.6666564941406 128.66666412353516 301.1666564941406 135.66666412353516 Q 299.6666564941406 142.66666412353516 296.6666564941406 146.66666412353516 Q 293.6666564941406 150.66666412353516 287.6666564941406 156.66666412353516 Q 281.6666564941406 162.66666412353516 270.6666564941406 173.66666412353516 Q 259.6666564941406 184.66666412353516 243.66665649414062 197.66666412353516 Q 227.66665649414062 210.66666412353516 214.16665649414062 222.16666412353516 Q 200.66665649414062 233.66666412353516 192.16665649414062 241.66666412353516 Q 183.66665649414062 249.66666412353516 178.66665649414062 256.16666412353516 Q 173.66665649414062 262.66666412353516 172.66665649414062 265.16666412353516 Q 171.66665649414062 267.66666412353516 171.66665649414062 270.16666412353516 Q 171.66665649414062 272.66666412353516 174.66665649414062 275.16666412353516 Q 177.66665649414062 277.66666412353516 180.66665649414062 280.16666412353516 Q 183.66665649414062 282.66666412353516 186.66665649414062 282.66666412353516 Q 189.66665649414062 282.66666412353516 193.66665649414062 283.16666412353516 Q 197.66665649414062 283.66666412353516 204.16665649414062 283.66666412353516 Q 210.66665649414062 283.66666412353516 216.16665649414062 283.66666412353516 Q 221.66665649414062 283.66666412353516 228.66665649414062 284.66666412353516 Q 235.66665649414062 285.66666412353516 239.66665649414062 286.16666412353516 Q 243.66665649414062 286.66666412353516 247.16665649414062 287.66666412353516 Q 250.66665649414062 288.66666412353516 253.16665649414062 289.66666412353516 Q 255.66665649414062 290.66666412353516 259.1666564941406 291.66666412353516 Q 262.6666564941406 292.66666412353516 265.6666564941406 294.66666412353516 Q 268.6666564941406 296.66666412353516 273.1666564941406 298.66666412353516 Q 277.6666564941406 300.66666412353516 285.6666564941406 301.16666412353516 Q 293.6666564941406 301.66666412353516 309.1666564941406 301.16666412353516 Q 324.6666564941406 300.66666412353516 338.1666564941406 296.66666412353516 Q 351.6666564941406 292.66666412353516 363.6666564941406 286.66666412353516 Q 375.6666564941406 280.66666412353516 385.1666564941406 273.66666412353516 Q 394.6666564941406 266.66666412353516 401.1666564941406 258.66666412353516 Q 407.6666564941406 250.66666412353516 410.6666564941406 241.66666412353516 Q 413.6666564941406 232.66666412353516 414.1666564941406 225.16666412353516 Q 414.6666564941406 217.66666412353516 412.1666564941406 208.66666412353516 Q 409.6666564941406 199.66666412353516 404.1666564941406 193.16666412353516 Q 398.6666564941406 186.66666412353516 389.1666564941406 182.16666412353516 Q 379.6666564941406 177.66666412353516 363.1666564941406 175.16666412353516 Q 346.6666564941406 172.66666412353516 328.1666564941406 171.66666412353516 Q 309.6666564941406 170.66666412353516 296.1666564941406 169.16666412353516 Q 282.6666564941406 167.66666412353516 273.6666564941406 166.16666412353516 Q 264.6666564941406 164.66666412353516 264.1666564941406 162.66666412353516 Q 263.6666564941406 160.66666412353516 264.6666564941406 157.16666412353516 Q 265.6666564941406 153.66666412353516 269.1666564941406 150.16666412353516 Q 272.6666564941406 146.66666412353516 276.6666564941406 143.66666412353516 Q 280.6666564941406 140.66666412353516 287.1666564941406 136.66666412353516 Q 293.6666564941406 132.66666412353516 302.6666564941406 127.66666412353516 Q 311.6666564941406 122.66666412353516 320.6666564941406 116.66666412353516 Q 329.6666564941406 110.66666412353516 337.1666564941406 105.16666412353516 Q 344.6666564941406 99.66666412353516 348.6666564941406 97.16666412353516 Q 352.6666564941406 94.66666412353516 353.1666564941406 93.66666412353516 Q 353.6666564941406 92.66666412353516 353.6666564941406 93.16666412353516 Q 353.6666564941406 93.66666412353516 354.6666564941406 94.66666412353516 Q 355.6666564941406 95.66666412353516 357.6666564941406 98.16666412353516 Q 359.6666564941406 100.66666412353516 361.6666564941406 104.16666412353516 Q 363.6666564941406 107.66666412353516 366.1666564941406 112.66666412353516 Q 368.6666564941406 117.66666412353516 368.6666564941406 121.66666412353516 Q 368.6666564941406 125.66666412353516 368.6666564941406 136.16666412353516 Q 368.6666564941406 146.66666412353516 365.6666564941406 162.16666412353516 Q 362.6666564941406 177.66666412353516 358.6666564941406 195.16666412353516 Q 354.6666564941406 212.66666412353516 349.6666564941406 225.66666412353516 Q 344.6666564941406 238.66666412353516 340.1666564941406 249.16666412353516 Q 335.6666564941406 259.66666412353516 328.6666564941406 273.66666412353516 Q 321.6666564941406 287.66666412353516 320.1666564941406 293.16666412353516 Q 318.6666564941406 298.66666412353516 318.6666564941406 302.66666412353516 Q 318.6666564941406 306.66666412353516 320.6666564941406 309.66666412353516 Q 322.6666564941406 312.66666412353516 326.1666564941406 313.16666412353516 Q 329.6666564941406 313.66666412353516 334.6666564941406 313.66666412353516 Q 339.6666564941406 313.66666412353516 345.6666564941406 313.66666412353516 Q 351.6666564941406 313.66666412353516 357.1666564941406 312.66666412353516 L 362.6676564941406 311.6656641235352" stroke-linecap="round" />
</g>
<g transform="matrix(1 0 0 1 323.04 235.17)"  >
<path style="stroke: rgb(0,0,0); stroke-width: 1; stroke-dasharray: none; stroke-linecap: round; stroke-dashoffset: 0; stroke-linejoin: round; stroke-miterlimit: 10; fill: none; fill-rule: nonzero; opacity: 1;"  transform=" translate(-323.04, -235.17)" d="M 140.66765649414063 36.666664123535156 Q 140.66665649414062 36.666664123535156 140.16665649414062 36.666664123535156 Q 139.66665649414062 36.666664123535156 136.66665649414062 36.666664123535156 Q 133.66665649414062 36.666664123535156 128.66665649414062 38.166664123535156 Q 123.66665649414062 39.666664123535156 117.66665649414062 40.166664123535156 Q 111.66665649414062 40.666664123535156 102.66665649414062 41.666664123535156 Q 93.66665649414062 42.666664123535156 84.16665649414062 44.666664123535156 Q 74.66665649414062 46.666664123535156 68.16665649414062 49.666664123535156 Q 61.666656494140625 52.666664123535156 59.666656494140625 54.666664123535156 Q 57.666656494140625 56.666664123535156 58.666656494140625 56.666664123535156 Q 59.666656494140625 56.666664123535156 64.66665649414062 56.666664123535156 Q 69.66665649414062 56.666664123535156 78.66665649414062 55.666664123535156 Q 87.66665649414062 54.666664123535156 99.66665649414062 54.666664123535156 Q 111.66665649414062 54.666664123535156 128.66665649414062 54.666664123535156 Q 145.66665649414062 54.666664123535156 151.16665649414062 56.166664123535156 Q 156.66665649414062 57.666664123535156 157.16665649414062 59.166664123535156 Q 157.66665649414062 60.666664123535156 157.66665649414062 63.666664123535156 Q 157.66665649414062 66.66666412353516 156.66665649414062 68.66666412353516 Q 155.66665649414062 70.66666412353516 151.16665649414062 75.16666412353516 Q 146.66665649414062 79.66666412353516 136.66665649414062 85.16666412353516 Q 126.66665649414062 90.66666412353516 113.16665649414062 96.66666412353516 Q 99.66665649414062 102.66666412353516 84.66665649414062 108.66666412353516 Q 69.66665649414062 114.66666412353516 56.666656494140625 118.66666412353516 Q 43.666656494140625 122.66666412353516 33.166656494140625 126.66666412353516 Q 22.666656494140625 130.66666412353516 17.166656494140625 133.66666412353516 Q 11.666656494140625 136.66666412353516 11.666656494140625 137.66666412353516 Q 11.666656494140625 138.66666412353516 11.666656494140625 139.16666412353516 Q 11.666656494140625 139.66666412353516 13.666656494140625 140.16666412353516 Q 15.666656494140625 140.66666412353516 18.666656494140625 140.66666412353516 Q 21.666656494140625 140.66666412353516 29.166656494140625 140.66666412353516 Q 36.666656494140625 140.66666412353516 46.166656494140625 140.66666412353516 Q 55.666656494140625 140.66666412353516 64.16665649414062 140.66666412353516 Q 72.66665649414062 140.66666412353516 76.66665649414062 141.66666412353516 Q 80.66665649414062 142.66666412353516 81.16665649414062 144.16666412353516 Q 81.66665649414062 145.66666412353516 81.66665649414062 149.16666412353516 Q 81.66665649414062 152.66666412353516 81.16665649414062 155.66666412353516 Q 80.66665649414062 158.66666412353516 77.16665649414062 165.66666412353516 Q 73.66665649414062 172.66666412353516 63.666656494140625 187.16666412353516 Q 53.666656494140625 201.66666412353516 46.666656494140625 211.16666412353516 Q 39.666656494140625 220.66666412353516 32.166656494140625 229.16666412353516 Q 24.666656494140625 237.66666412353516 22.166656494140625 243.16666412353516 Q 19.666656494140625 248.66666412353516 18.666656494140625 251.66666412353516 Q 17.666656494140625 254.66666412353516 17.666656494140625 255.16666412353516 Q 17.666656494140625 255.66666412353516 19.666656494140625 256.16666412353516 Q 21.666656494140625 256.66666412353516 26.666656494140625 256.66666412353516 Q 31.666656494140625 256.66666412353516 39.166656494140625 256.66666412353516 Q 46.666656494140625 256.66666412353516 56.666656494140625 256.66666412353516 Q 66.66665649414062 256.66666412353516 74.66665649414062 256.66666412353516 Q 82.66665649414062 256.66666412353516 88.16665649414062 256.66666412353516 Q 93.66665649414062 256.66666412353516 93.66665649414062 257.66666412353516 Q 93.66665649414062 258.66666412353516 93.66665649414062 261.66666412353516 Q 93.66665649414062 264.66666412353516 91.66665649414062 267.66666412353516 Q 89.66665649414062 270.66666412353516 85.16665649414062 276.66666412353516 Q 80.66665649414062 282.66666412353516 77.66665649414062 285.66666412353516 Q 74.66665649414062 288.66666412353516 67.16665649414062 295.66666412353516 Q 59.666656494140625 302.66666412353516 51.666656494140625 309.66666412353516 Q 43.666656494140625 316.66666412353516 36.166656494140625 323.66666412353516 Q 28.666656494140625 330.66666412353516 23.166656494140625 336.66666412353516 Q 17.666656494140625 342.66666412353516 15.666656494140625 348.66666412353516 Q 13.666656494140625 354.66666412353516 13.166656494140625 359.66666412353516 Q 12.666656494140625 364.66666412353516 13.166656494140625 367.66666412353516 Q 13.666656494140625 370.66666412353516 15.666656494140625 372.66666412353516 Q 17.666656494140625 374.66666412353516 24.666656494140625 378.66666412353516 Q 31.666656494140625 382.66666412353516 42.166656494140625 384.16666412353516 Q 52.666656494140625 385.66666412353516 65.16665649414062 386.16666412353516 Q 77.66665649414062 386.66666412353516 91.66665649414062 386.66666412353516 Q 105.66665649414062 386.66666412353516 119.66665649414062 386.66666412353516 Q 133.66665649414062 386.66666412353516 145.16665649414062 386.66666412353516 Q 156.66665649414062 386.66666412353516 165.16665649414062 387.66666412353516 Q 173.66665649414062 388.66666412353516 177.66665649414062 390.66666412353516 Q 181.66665649414062 392.66666412353516 182.66665649414062 394.16666412353516 Q 183.66665649414062 395.66666412353516 184.66665649414062 397.16666412353516 Q 185.66665649414062 398.66666412353516 185.16665649414062 402.16666412353516 Q 184.66665649414062 405.66666412353516 183.16665649414062 410.16666412353516 Q 181.66665649414062 414.66666412353516 176.66665649414062 425.66666412353516 Q 171.66665649414062 436.66666412353516 169.66665649414062 443.16666412353516 Q 167.66665649414062 449.66666412353516 166.66665649414062 454.16666412353516 Q 165.66665649414062 458.66666412353516 167.16665649414062 461.16666412353516 Q 168.66665649414062 463.66666412353516 171.16665649414062 465.16666412353516 Q 173.66665649414062 466.66666412353516 181.66665649414062 467.66666412353516 Q 189.66665649414062 468.66666412353516 201.66665649414062 468.66666412353516 Q 213.66665649414062 468.66666412353516 227.66665649414062 466.66666412353516 Q 241.66665649414062 464.66666412353516 263.1666564941406 460.66666412353516 Q 284.6666564941406 456.66666412353516 312.6666564941406 450.16666412353516 Q 340.6666564941406 443.66666412353516 371.1666564941406 437.16666412353516 Q 401.6666564941406 430.66666412353516 448.6666564941406 423.66666412353516 Q 495.6666564941406 416.66666412353516 524.1666564941406 413.66666412353516 Q 552.6666564941406 410.66666412353516 569.1666564941406 409.66666412353516 Q 585.6666564941406 408.66666412353516 592.1666564941406 408.66666412353516 Q 598.6666564941406 408.66666412353516 599.6666564941406 408.66666412353516 Q 600.6666564941406 408.66666412353516 600.6666564941406 409.16666412353516 Q 600.6666564941406 409.66666412353516 601.1666564941406 410.16666412353516 Q 601.6666564941406 410.66666412353516 601.6666564941406 411.16666412353516 Q 601.6666564941406 411.66666412353516 602.6666564941406 410.16666412353516 Q 603.6666564941406 408.66666412353516 604.1666564941406 407.66666412353516 Q 604.6666564941406 406.66666412353516 607.6666564941406 401.66666412353516 Q 610.6666564941406 396.66666412353516 612.1666564941406 392.66666412353516 Q 613.6666564941406 388.66666412353516 617.6666564941406 375.66666412353516 Q 621.6666564941406 362.66666412353516 625.1666564941406 349.16666412353516 Q 628.6666564941406 335.66666412353516 631.1666564941406 319.16666412353516 Q 633.6666564941406 302.66666412353516 634.1666564941406 282.66666412353516 Q 634.6666564941406 262.66666412353516 631.6666564941406 243.66666412353516 Q 628.6666564941406 224.66666412353516 618.6666564941406 204.66666412353516 Q 608.6666564941406 184.66666412353516 596.1666564941406 171.16666412353516 Q 583.6666564941406 157.66666412353516 564.1666564941406 143.16666412353516 Q 544.6666564941406 128.66666412353516 525.1666564941406 118.66666412353516 Q 505.6666564941406 108.66666412353516 488.6666564941406 102.16666412353516 Q 471.6666564941406 95.66666412353516 455.6666564941406 89.16666412353516 Q 439.6666564941406 82.66666412353516 429.1666564941406 77.66666412353516 Q 418.6666564941406 72.66666412353516 415.1666564941406 70.16666412353516 Q 411.6666564941406 67.66666412353516 412.6666564941406 61.166664123535156 Q 413.6666564941406 54.666664123535156 417.6666564941406 48.666664123535156 Q 421.6666564941406 42.666664123535156 425.6666564941406 38.666664123535156 Q 429.6666564941406 34.666664123535156 435.1666564941406 29.666664123535156 Q 440.6666564941406 24.666664123535156 445.6666564941406 20.666664123535156 Q 450.6666564941406 16.666664123535156 451.1666564941406 15.666664123535156 Q 451.6666564941406 14.666664123535156 448.1666564941406 15.666664123535156 Q 444.6666564941406 16.666664123535156 439.1666564941406 17.666664123535156 Q 433.6666564941406 18.666664123535156 421.6666564941406 21.166664123535156 Q 409.6666564941406 23.666664123535156 382.6666564941406 25.166664123535156 Q 355.6666564941406 26.666664123535156 346.1666564941406 26.666664123535156 Q 336.6666564941406 26.666664123535156 317.1666564941406 27.666664123535156 Q 297.6666564941406 28.666664123535156 288.1666564941406 28.666664123535156 Q 278.6666564941406 28.666664123535156 270.1666564941406 28.666664123535156 Q 261.6666564941406 28.666664123535156 254.66665649414062 28.666664123535156 Q 247.66665649414062 28.666664123535156 239.16665649414062 28.666664123535156 Q 230.66665649414062 28.666664123535156 222.16665649414062 28.666664123535156 Q 213.66665649414062 28.666664123535156 205.66665649414062 29.666664123535156 Q 197.66665649414062 30.666664123535156 190.16665649414062 31.666664123535156 Q 182.66665649414062 32.666664123535156 176.66665649414062 32.666664123535156 Q 170.66665649414062 32.666664123535156 166.66665649414062 32.666664123535156 Q 162.66665649414062 32.666664123535156 160.16665649414062 33.166664123535156 Q 157.66665649414062 33.666664123535156 158.66665649414062 32.166664123535156 Q 159.66665649414062 30.666664123535156 162.66665649414062 28.666664123535156 Q 165.66665649414062 26.666664123535156 170.16665649414062 24.166664123535156 Q 174.66665649414062 21.666664123535156 182.66665649414062 18.666664123535156 Q 190.66665649414062 15.666664123535156 199.16665649414062 12.166664123535156 Q 207.66665649414062 8.666664123535156 214.16665649414062 5.666664123535156 Q 220.66665649414062 2.6666641235351562 223.16665649414062 2.1666641235351562 Q 225.66665649414062 1.6666641235351562 226.16665649414062 1.6666641235351562 Q 226.66665649414062 1.6666641235351562 227.16665649414062 1.6666641235351562 Q 227.66665649414062 1.6666641235351562 228.16665649414062 1.6666641235351562 Q 228.66665649414062 1.6666641235351562 229.16665649414062 2.1666641235351562 Q 229.66665649414062 2.6666641235351562 229.66665649414062 3.6666641235351562 Q 229.66665649414062 4.666664123535156 229.66665649414062 7.666664123535156 Q 229.66665649414062 10.666664123535156 227.16665649414062 14.666664123535156 Q 224.66665649414062 18.666664123535156 223.16665649414062 21.666664123535156 Q 221.66665649414062 24.666664123535156 217.66665649414062 30.666664123535156 Q 213.66665649414062 36.666664123535156 207.16665649414062 44.166664123535156 Q 200.66665649414062 51.666664123535156 192.66665649414062 59.166664123535156 Q 184.66665649414062 66.66666412353516 177.16665649414062 74.16666412353516 Q 169.66665649414062 81.66666412353516 163.66665649414062 87.16666412353516 Q 157.66665649414062 92.66666412353516 156.16665649414062 95.16666412353516 Q 154.66665649414062 97.66666412353516 154.66665649414062 99.66666412353516 Q 154.66665649414062 101.66666412353516 162.16665649414062 103.66666412353516 Q 169.66665649414062 105.66666412353516 175.66665649414062 105.66666412353516 Q 181.66665649414062 105.66666412353516 194.16665649414062 105.16666412353516 Q 206.66665649414062 104.66666412353516 230.16665649414062 101.66666412353516 Q 253.66665649414062 98.66666412353516 280.1666564941406 96.66666412353516 Q 306.6666564941406 94.66666412353516 337.1666564941406 93.16666412353516 Q 367.6666564941406 91.66666412353516 394.1666564941406 90.16666412353516 Q 420.6666564941406 88.66666412353516 440.1666564941406 87.66666412353516 Q 459.6666564941406 86.66666412353516 472.1666564941406 86.66666412353516 Q 484.6666564941406 86.66666412353516 493.6666564941406 87.16666412353516 Q 502.6666564941406 87.66666412353516 509.1666564941406 89.16666412353516 Q 515.6666564941406 90.66666412353516 515.6666564941406 91.16666412353516 Q 515.6666564941406 91.66666412353516 515.6666564941406 93.16666412353516 Q 515.6666564941406 94.66666412353516 514.1666564941406 98.66666412353516 Q 512.6666564941406 102.66666412353516 510.6666564941406 105.66666412353516 Q 508.6666564941406 108.66666412353516 502.1666564941406 114.16666412353516 Q 495.6666564941406 119.66666412353516 484.6666564941406 127.66666412353516 Q 473.6666564941406 135.66666412353516 461.6666564941406 143.16666412353516 Q 449.6666564941406 150.66666412353516 437.6666564941406 158.66666412353516 Q 425.6666564941406 166.66666412353516 414.6666564941406 174.66666412353516 Q 403.6666564941406 182.66666412353516 397.1666564941406 188.66666412353516 Q 390.6666564941406 194.66666412353516 385.6666564941406 199.66666412353516 Q 380.6666564941406 204.66666412353516 379.6666564941406 207.66666412353516 Q 378.6666564941406 210.66666412353516 379.1666564941406 212.66666412353516 Q 379.6666564941406 214.66666412353516 382.6666564941406 216.66666412353516 Q 385.6666564941406 218.66666412353516 393.6666564941406 220.16666412353516 Q 401.6666564941406 221.66666412353516 410.6666564941406 221.66666412353516 Q 419.6666564941406 221.66666412353516 428.1666564941406 221.66666412353516 Q 436.6666564941406 221.66666412353516 441.1666564941406 221.66666412353516 Q 445.6666564941406 221.66666412353516 446.6666564941406 221.66666412353516 Q 447.6666564941406 221.66666412353516 447.6666564941406 222.16666412353516 Q 447.6666564941406 222.66666412353516 447.6666564941406 223.66666412353516 Q 447.6666564941406 224.66666412353516 446.1666564941406 227.16666412353516 Q 444.6666564941406 229.66666412353516 440.1666564941406 234.16666412353516 Q 435.6666564941406 238.66666412353516 426.6666564941406 245.66666412353516 Q 417.6666564941406 252.66666412353516 400.6666564941406 260.66666412353516 Q 383.6666564941406 268.66666412353516 362.6666564941406 275.66666412353516 Q 341.6666564941406 282.66666412353516 313.1666564941406 295.66666412353516 Q 284.6666564941406 308.66666412353516 272.6666564941406 319.16666412353516 Q 260.6666564941406 329.66666412353516 252.16665649414062 338.16666412353516 Q 243.66665649414062 346.66666412353516 239.16665649414062 354.16666412353516 Q 234.66665649414062 361.66666412353516 233.16665649414062 366.66666412353516 Q 231.66665649414062 371.66666412353516 234.16665649414062 375.16666412353516 Q 236.66665649414062 378.66666412353516 242.16665649414062 382.66666412353516 Q 247.66665649414062 386.66666412353516 252.66665649414062 389.66666412353516 Q 257.6666564941406 392.66666412353516 262.1666564941406 393.66666412353516 Q 266.6666564941406 394.66666412353516 274.1666564941406 396.66666412353516 Q 281.6666564941406 398.66666412353516 293.1666564941406 400.66666412353516 Q 304.6666564941406 402.66666412353516 316.1666564941406 403.66666412353516 Q 327.6666564941406 404.66666412353516 346.6666564941406 405.66666412353516 Q 365.6666564941406 406.66666412353516 380.6666564941406 406.66666412353516 Q 395.6666564941406 406.66666412353516 412.6666564941406 406.66666412353516 Q 429.6666564941406 406.66666412353516 446.6666564941406 406.66666412353516 Q 463.6666564941406 406.66666412353516 481.6666564941406 406.66666412353516 Q 499.6666564941406 406.66666412353516 513.1666564941406 403.16666412353516 Q 526.6666564941406 399.66666412353516 537.6666564941406 395.16666412353516 Q 548.6666564941406 390.66666412353516 557.6666564941406 384.66666412353516 Q 566.6666564941406 378.66666412353516 572.1666564941406 371.66666412353516 Q 577.6666564941406 364.66666412353516 580.6666564941406 356.66666412353516 Q 583.6666564941406 348.66666412353516 585.6666564941406 338.66666412353516 Q 587.6666564941406 328.66666412353516 588.1666564941406 316.66666412353516 Q 588.6666564941406 304.66666412353516 587.6666564941406 293.66666412353516 Q 586.6666564941406 282.66666412353516 581.6666564941406 266.66666412353516 Q 576.6666564941406 250.66666412353516 571.6666564941406 239.16666412353516 Q 566.6666564941406 227.66666412353516 562.1666564941406 218.16666412353516 Q 557.6666564941406 208.66666412353516 552.6666564941406 201.16666412353516 Q 547.6666564941406 193.66666412353516 544.6666564941406 190.16666412353516 Q 541.6666564941406 186.66666412353516 541.1666564941406 184.16666412353516 Q 540.6666564941406 181.66666412353516 539.1666564941406 178.66666412353516 Q 537.6666564941406 175.66666412353516 537.6666564941406 171.66666412353516 Q 537.6666564941406 167.66666412353516 538.6666564941406 164.16666412353516 Q 539.6666564941406 160.66666412353516 541.1666564941406 155.16666412353516 Q 542.6666564941406 149.66666412353516 547.1666564941406 138.16666412353516 Q 551.6666564941406 126.66666412353516 551.6666564941406 125.66666412353516 Q 551.6666564941406 124.66666412353516 550.6666564941406 124.16666412353516 Q 549.6666564941406 123.66666412353516 546.6666564941406 123.66666412353516 Q 543.6666564941406 123.66666412353516 539.1666564941406 123.66666412353516 Q 534.6666564941406 123.66666412353516 528.6666564941406 123.66666412353516 Q 522.6666564941406 123.66666412353516 521.6666564941406 123.66666412353516 Q 520.6666564941406 123.66666412353516 520.6666564941406 122.66666412353516 Q 520.6666564941406 121.66666412353516 522.6666564941406 116.66666412353516 Q 524.6666564941406 111.66666412353516 529.1666564941406 105.66666412353516 Q 533.6666564941406 99.66666412353516 537.1666564941406 96.16666412353516 Q 540.6666564941406 92.66666412353516 546.1666564941406 87.66666412353516 Q 551.6666564941406 82.66666412353516 556.1666564941406 77.66666412353516 Q 560.6666564941406 72.66666412353516 563.6666564941406 70.16666412353516 Q 566.6666564941406 67.66666412353516 569.1666564941406 64.66666412353516 Q 571.6666564941406 61.666664123535156 573.6666564941406 59.166664123535156 Q 575.6666564941406 56.666664123535156 576.6666564941406 55.666664123535156 Q 577.6666564941406 54.666664123535156 576.6666564941406 59.666664123535156 Q 575.6666564941406 64.66666412353516 572.6666564941406 68.66666412353516 Q 569.6666564941406 72.66666412353516 563.6666564941406 82.16666412353516 Q 557.6666564941406 91.66666412353516 544.1666564941406 109.16666412353516 Q 530.6666564941406 126.66666412353516 511.6666564941406 147.16666412353516 Q 492.6666564941406 167.66666412353516 468.6666564941406 186.66666412353516 Q 444.6666564941406 205.66666412353516 417.1666564941406 224.16666412353516 Q 389.6666564941406 242.66666412353516 357.6666564941406 268.66666412353516 Q 325.6666564941406 294.66666412353516 313.6666564941406 307.66666412353516 Q 301.6666564941406 320.66666412353516 295.1666564941406 327.16666412353516 Q 288.6666564941406 333.66666412353516 287.1666564941406 337.16666412353516 Q 285.6666564941406 340.66666412353516 286.6666564941406 342.16666412353516 Q 287.6666564941406 343.66666412353516 289.1666564941406 344.16666412353516 Q 290.6666564941406 344.66666412353516 294.6666564941406 344.66666412353516 Q 298.6666564941406 344.66666412353516 302.6666564941406 344.66666412353516 Q 306.6666564941406 344.66666412353516 313.1666564941406 342.66666412353516 Q 319.6666564941406 340.66666412353516 331.6666564941406 336.16666412353516 Q 343.6666564941406 331.66666412353516 360.6666564941406 325.16666412353516 Q 377.6666564941406 318.66666412353516 399.1666564941406 309.66666412353516 Q 420.6666564941406 300.66666412353516 452.1666564941406 287.66666412353516 Q 483.6666564941406 274.66666412353516 498.6666564941406 268.16666412353516 Q 513.6666564941406 261.66666412353516 523.1666564941406 259.16666412353516 Q 532.6666564941406 256.66666412353516 534.1666564941406 256.66666412353516 Q 535.6666564941406 256.66666412353516 536.1666564941406 256.66666412353516 Q 536.6666564941406 256.66666412353516 537.1666564941406 256.66666412353516 Q 537.6666564941406 256.66666412353516 538.1666564941406 257.16666412353516 Q 538.6666564941406 257.66666412353516 539.1666564941406 259.16666412353516 Q 539.6666564941406 260.66666412353516 540.6666564941406 261.66666412353516 Q 541.6666564941406 262.66666412353516 542.1666564941406 263.66666412353516 Q 542.6666564941406 264.66666412353516 542.6666564941406 265.66666412353516 Q 542.6666564941406 266.66666412353516 542.6666564941406 268.66666412353516 Q 542.6666564941406 270.66666412353516 542.6666564941406 276.16666412353516 Q 542.6666564941406 281.66666412353516 542.1666564941406 286.16666412353516 Q 541.6666564941406 290.66666412353516 539.6666564941406 298.66666412353516 Q 537.6666564941406 306.66666412353516 537.6666564941406 312.66666412353516 Q 537.6666564941406 318.66666412353516 537.6666564941406 319.66666412353516 Q 537.6666564941406 320.66666412353516 538.1666564941406 320.66666412353516 Q 538.6666564941406 320.66666412353516 539.1666564941406 320.66666412353516 Q 539.6666564941406 320.66666412353516 539.6666564941406 322.16666412353516 Q 539.6666564941406 323.66666412353516 539.6666564941406 324.16666412353516 Q 539.6666564941406 324.66666412353516 539.6666564941406 326.16666412353516 Q 539.6666564941406 327.66666412353516 539.6666564941406 329.16666412353516 L 539.6666564941406 330.66766412353513" stroke-linecap="round" />
</g>
<g transform="matrix(1 0 0 1 222.35 233.67)"  >
<path style="stroke: rgb(0,0,0); stroke-width: 1; stroke-dasharray: none; stroke-linecap: round; stroke-dashoffset: 0; stroke-linejoin: round; stroke-miterlimit: 10; fill: none; fill-rule: nonzero; opacity: 1;"  transform=" translate(-222.35, -233.67)" d="M 59.666656494140625 268.6656641235352 Q 59.666656494140625 268.66666412353516 59.666656494140625 269.66666412353516 Q 59.666656494140625 270.66666412353516 59.666656494140625 271.66666412353516 Q 59.666656494140625 272.66666412353516 59.166656494140625 275.66666412353516 Q 58.666656494140625 278.66666412353516 57.666656494140625 281.66666412353516 Q 56.666656494140625 284.66666412353516 56.166656494140625 288.16666412353516 Q 55.666656494140625 291.66666412353516 54.166656494140625 295.66666412353516 Q 52.666656494140625 299.66666412353516 51.166656494140625 305.16666412353516 Q 49.666656494140625 310.66666412353516 47.166656494140625 318.66666412353516 Q 44.666656494140625 326.66666412353516 42.166656494140625 334.66666412353516 Q 39.666656494140625 342.66666412353516 37.666656494140625 351.16666412353516 Q 35.666656494140625 359.66666412353516 36.166656494140625 364.16666412353516 Q 36.666656494140625 368.66666412353516 40.166656494140625 371.16666412353516 Q 43.666656494140625 373.66666412353516 46.666656494140625 373.66666412353516 Q 49.666656494140625 373.66666412353516 56.166656494140625 373.66666412353516 Q 62.666656494140625 373.66666412353516 77.16665649414062 373.66666412353516 Q 91.66665649414062 373.66666412353516 102.66665649414062 373.66666412353516 Q 113.66665649414062 373.66666412353516 123.66665649414062 374.16666412353516 Q 133.66665649414062 374.66666412353516 139.66665649414062 375.66666412353516 Q 145.66665649414062 376.66666412353516 147.16665649414062 377.66666412353516 Q 148.66665649414062 378.66666412353516 148.66665649414062 380.66666412353516 Q 148.66665649414062 382.66666412353516 148.66665649414062 384.66666412353516 Q 148.66665649414062 386.66666412353516 146.66665649414062 390.66666412353516 Q 144.66665649414062 394.66666412353516 139.16665649414062 399.66666412353516 Q 133.66665649414062 404.66666412353516 124.16665649414062 411.16666412353516 Q 114.66665649414062 417.66666412353516 104.66665649414062 424.16666412353516 Q 94.66665649414062 430.66666412353516 80.66665649414062 439.16666412353516 Q 66.66665649414062 447.66666412353516 60.166656494140625 452.66666412353516 Q 53.666656494140625 457.66666412353516 52.666656494140625 458.66666412353516 Q 51.666656494140625 459.66666412353516 51.666656494140625 460.16666412353516 Q 51.666656494140625 460.66666412353516 53.666656494140625 460.66666412353516 Q 55.666656494140625 460.66666412353516 59.666656494140625 460.66666412353516 Q 63.666656494140625 460.66666412353516 74.66665649414062 459.66666412353516 Q 85.66665649414062 458.66666412353516 100.66665649414062 457.16666412353516 Q 115.66665649414062 455.66666412353516 137.16665649414062 452.66666412353516 Q 158.66665649414062 449.66666412353516 186.16665649414062 448.16666412353516 Q 213.66665649414062 446.66666412353516 247.16665649414062 445.16666412353516 Q 280.6666564941406 443.66666412353516 323.1666564941406 442.66666412353516 Q 365.6666564941406 441.66666412353516 395.6666564941406 442.16666412353516 Q 425.6666564941406 442.66666412353516 448.6666564941406 444.66666412353516 Q 471.6666564941406 446.66666412353516 491.6666564941406 448.66666412353516 Q 511.6666564941406 450.66666412353516 526.1666564941406 453.16666412353516 Q 540.6666564941406 455.66666412353516 546.1666564941406 457.16666412353516 Q 551.6666564941406 458.66666412353516 550.6666564941406 459.66666412353516 Q 549.6666564941406 460.66666412353516 546.6666564941406 462.66666412353516 Q 543.6666564941406 464.66666412353516 536.1666564941406 467.66666412353516 Q 528.6666564941406 470.66666412353516 518.6666564941406 473.16666412353516 Q 508.6666564941406 475.66666412353516 500.1666564941406 477.16666412353516 Q 491.6666564941406 478.66666412353516 487.6666564941406 479.66666412353516 Q 483.6666564941406 480.66666412353516 488.6666564941406 479.66666412353516 Q 493.6666564941406 478.66666412353516 503.1666564941406 473.66666412353516 Q 512.6666564941406 468.66666412353516 526.6666564941406 461.16666412353516 Q 540.6666564941406 453.66666412353516 555.1666564941406 445.66666412353516 Q 569.6666564941406 437.66666412353516 581.1666564941406 431.16666412353516 Q 592.6666564941406 424.66666412353516 602.1666564941406 418.16666412353516 Q 611.6666564941406 411.66666412353516 618.1666564941406 406.16666412353516 Q 624.6666564941406 400.66666412353516 627.1666564941406 395.66666412353516 Q 629.6666564941406 390.66666412353516 630.1666564941406 383.66666412353516 Q 630.6666564941406 376.66666412353516 626.1666564941406 366.66666412353516 Q 621.6666564941406 356.66666412353516 615.1666564941406 350.66666412353516 Q 608.6666564941406 344.66666412353516 595.6666564941406 338.66666412353516 Q 582.6666564941406 332.66666412353516 559.6666564941406 326.66666412353516 Q 536.6666564941406 320.66666412353516 501.6666564941406 312.16666412353516 Q 466.6666564941406 303.66666412353516 430.1666564941406 294.16666412353516 Q 393.6666564941406 284.66666412353516 359.6666564941406 273.66666412353516 Q 325.6666564941406 262.66666412353516 304.6666564941406 256.66666412353516 Q 283.6666564941406 250.66666412353516 273.6666564941406 245.66666412353516 Q 263.6666564941406 240.66666412353516 258.6666564941406 235.16666412353516 Q 253.66665649414062 229.66666412353516 252.66665649414062 222.66666412353516 Q 251.66665649414062 215.66666412353516 254.16665649414062 207.16666412353516 Q 256.6666564941406 198.66666412353516 262.6666564941406 189.66666412353516 Q 268.6666564941406 180.66666412353516 274.6666564941406 172.66666412353516 Q 280.6666564941406 164.66666412353516 278.1666564941406 164.66666412353516 Q 275.6666564941406 164.66666412353516 269.6666564941406 166.66666412353516 Q 263.6666564941406 168.66666412353516 245.66665649414062 172.66666412353516 Q 227.66665649414062 176.66666412353516 195.66665649414062 183.66666412353516 Q 163.66665649414062 190.66666412353516 127.66665649414062 196.66666412353516 Q 91.66665649414062 202.66666412353516 65.16665649414062 203.66666412353516 Q 38.666656494140625 204.66666412353516 26.166656494140625 204.66666412353516 Q 13.666656494140625 204.66666412353516 11.666656494140625 204.16666412353516 Q 9.666656494140625 203.66666412353516 10.166656494140625 200.16666412353516 Q 10.666656494140625 196.66666412353516 14.166656494140625 191.66666412353516 Q 17.666656494140625 186.66666412353516 25.666656494140625 178.66666412353516 Q 33.666656494140625 170.66666412353516 57.666656494140625 152.66666412353516 Q 81.66665649414062 134.66666412353516 100.66665649414062 121.16666412353516 Q 119.66665649414062 107.66666412353516 139.66665649414062 95.16666412353516 Q 159.66665649414062 82.66666412353516 177.16665649414062 72.66666412353516 Q 194.66665649414062 62.666664123535156 214.16665649414062 52.666664123535156 Q 233.66665649414062 42.666664123535156 250.16665649414062 37.666664123535156 Q 266.6666564941406 32.666664123535156 279.1666564941406 30.666664123535156 Q 291.6666564941406 28.666664123535156 302.6666564941406 27.666664123535156 Q 313.6666564941406 26.666664123535156 322.6666564941406 26.666664123535156 Q 331.6666564941406 26.666664123535156 338.6666564941406 26.666664123535156 Q 345.6666564941406 26.666664123535156 348.6666564941406 27.666664123535156 Q 351.6666564941406 28.666664123535156 352.1666564941406 28.666664123535156 Q 352.6666564941406 28.666664123535156 352.6666564941406 32.666664123535156 Q 352.6666564941406 36.666664123535156 348.6666564941406 42.666664123535156 Q 344.6666564941406 48.666664123535156 341.1666564941406 51.166664123535156 Q 337.6666564941406 53.666664123535156 331.1666564941406 58.166664123535156 Q 324.6666564941406 62.666664123535156 315.1666564941406 68.66666412353516 Q 305.6666564941406 74.66666412353516 301.6666564941406 77.66666412353516 Q 297.6666564941406 80.66666412353516 297.6666564941406 81.66666412353516 Q 297.6666564941406 82.66666412353516 298.6666564941406 82.66666412353516 Q 299.6666564941406 82.66666412353516 308.6666564941406 81.66666412353516 Q 317.6666564941406 80.66666412353516 340.6666564941406 76.66666412353516 Q 363.6666564941406 72.66666412353516 420.6666564941406 61.666664123535156 Q 477.6666564941406 50.666664123535156 515.1666564941406 48.166664123535156 Q 552.6666564941406 45.666664123535156 583.1666564941406 44.166664123535156 Q 613.6666564941406 42.666664123535156 629.6666564941406 42.666664123535156 Q 645.6666564941406 42.666664123535156 652.6666564941406 43.666664123535156 Q 659.6666564941406 44.666664123535156 660.1666564941406 47.166664123535156 Q 660.6666564941406 49.666664123535156 660.1666564941406 53.166664123535156 Q 659.6666564941406 56.666664123535156 654.6666564941406 61.166664123535156 Q 649.6666564941406 65.66666412353516 639.6666564941406 72.66666412353516 Q 629.6666564941406 79.66666412353516 614.6666564941406 89.16666412353516 Q 599.6666564941406 98.66666412353516 582.6666564941406 111.66666412353516 Q 565.6666564941406 124.66666412353516 544.1666564941406 139.66666412353516 Q 522.6666564941406 154.66666412353516 498.6666564941406 168.66666412353516 Q 474.6666564941406 182.66666412353516 438.1666564941406 200.16666412353516 Q 401.6666564941406 217.66666412353516 385.6666564941406 225.16666412353516 Q 369.6666564941406 232.66666412353516 359.6666564941406 237.66666412353516 Q 349.6666564941406 242.66666412353516 348.6666564941406 244.16666412353516 Q 347.6666564941406 245.66666412353516 348.6666564941406 247.16666412353516 Q 349.6666564941406 248.66666412353516 352.6666564941406 248.66666412353516 Q 355.6666564941406 248.66666412353516 359.6666564941406 248.66666412353516 Q 363.6666564941406 248.66666412353516 370.1666564941406 248.66666412353516 Q 376.6666564941406 248.66666412353516 386.1666564941406 247.66666412353516 Q 395.6666564941406 246.66666412353516 403.6666564941406 245.66666412353516 Q 411.6666564941406 244.66666412353516 415.6666564941406 244.16666412353516 Q 419.6666564941406 243.66666412353516 413.6666564941406 245.16666412353516 Q 407.6666564941406 246.66666412353516 405.6666564941406 246.66666412353516 Q 403.6666564941406 246.66666412353516 403.6666564941406 245.16666412353516 Q 403.6666564941406 243.66666412353516 405.1666564941406 240.16666412353516 Q 406.6666564941406 236.66666412353516 409.1666564941406 231.16666412353516 Q 411.6666564941406 225.66666412353516 414.6666564941406 216.16666412353516 Q 417.6666564941406 206.66666412353516 419.6666564941406 197.66666412353516 Q 421.6666564941406 188.66666412353516 421.1666564941406 181.66666412353516 Q 420.6666564941406 174.66666412353516 417.1666564941406 169.66666412353516 Q 413.6666564941406 164.66666412353516 403.1666564941406 158.66666412353516 Q 392.6666564941406 152.66666412353516 383.1666564941406 151.16666412353516 Q 373.6666564941406 149.66666412353516 364.1666564941406 148.66666412353516 Q 354.6666564941406 147.66666412353516 350.6666564941406 146.66666412353516 Q 346.6666564941406 145.66666412353516 346.6666564941406 145.16666412353516 Q 346.6666564941406 144.66666412353516 348.6666564941406 141.66666412353516 Q 350.6666564941406 138.66666412353516 353.6666564941406 136.66666412353516 Q 356.6666564941406 134.66666412353516 367.1666564941406 130.16666412353516 Q 377.6666564941406 125.66666412353516 396.6666564941406 121.66666412353516 Q 415.6666564941406 117.66666412353516 437.6666564941406 115.66666412353516 Q 459.6666564941406 113.66666412353516 482.6666564941406 113.16666412353516 Q 505.6666564941406 112.66666412353516 520.6666564941406 112.66666412353516 Q 535.6666564941406 112.66666412353516 541.6666564941406 113.16666412353516 Q 547.6666564941406 113.66666412353516 547.1666564941406 118.66666412353516 Q 546.6666564941406 123.66666412353516 542.6666564941406 127.16666412353516 Q 538.6666564941406 130.66666412353516 525.1666564941406 139.16666412353516 Q 511.6666564941406 147.66666412353516 470.6666564941406 169.16666412353516 Q 429.6666564941406 190.66666412353516 414.1666564941406 198.66666412353516 Q 398.6666564941406 206.66666412353516 367.1666564941406 223.66666412353516 Q 335.6666564941406 240.66666412353516 316.1666564941406 253.66666412353516 Q 296.6666564941406 266.66666412353516 289.6666564941406 276.16666412353516 Q 282.6666564941406 285.66666412353516 281.6666564941406 291.16666412353516 Q 280.6666564941406 296.66666412353516 283.1666564941406 300.16666412353516 Q 285.6666564941406 303.66666412353516 294.6666564941406 307.16666412353516 Q 303.6666564941406 310.66666412353516 326.1666564941406 311.66666412353516 Q 348.6666564941406 312.66666412353516 366.1666564941406 312.66666412353516 Q 383.6666564941406 312.66666412353516 397.1666564941406 313.66666412353516 Q 410.6666564941406 314.66666412353516 415.6666564941406 315.66666412353516 Q 420.6666564941406 316.66666412353516 419.1666564941406 320.16666412353516 Q 417.6666564941406 323.66666412353516 413.6666564941406 327.16666412353516 Q 409.6666564941406 330.66666412353516 396.6666564941406 338.66666412353516 Q 383.6666564941406 346.66666412353516 355.6666564941406 355.66666412353516 Q 327.6666564941406 364.66666412353516 286.6666564941406 373.66666412353516 Q 245.66665649414062 382.66666412353516 195.66665649414062 386.66666412353516 Q 145.66665649414062 390.66666412353516 90.16665649414062 391.66666412353516 Q 34.666656494140625 392.66666412353516 -20.833343505859375 392.66666412353516 Q -76.33334350585938 392.66666412353516 -127.33334350585938 390.66666412353516 Q -178.33334350585938 388.66666412353516 -190.33334350585938 383.66666412353516 Q -202.33334350585938 378.66666412353516 -207.33334350585938 371.66666412353516 Q -212.33334350585938 364.66666412353516 -214.33334350585938 356.66666412353516 Q -216.33334350585938 348.66666412353516 -214.33334350585938 339.66666412353516 Q -212.33334350585938 330.66666412353516 -205.33334350585938 320.66666412353516 Q -198.33334350585938 310.66666412353516 -185.33334350585938 297.16666412353516 Q -172.33334350585938 283.66666412353516 -153.83334350585938 268.16666412353516 Q -135.33334350585938 252.66666412353516 -111.33334350585938 233.66666412353516 Q -87.33334350585938 214.66666412353516 -59.833343505859375 194.66666412353516 Q -32.333343505859375 174.66666412353516 0.166656494140625 150.66666412353516 Q 32.666656494140625 126.66666412353516 59.166656494140625 106.66666412353516 Q 85.66665649414062 86.66666412353516 105.66665649414062 69.66666412353516 Q 125.66665649414062 52.666664123535156 141.66665649414062 37.666664123535156 Q 157.66665649414062 22.666664123535156 160.16665649414062 19.166664123535156 Q 162.66665649414062 15.666664123535156 162.66665649414062 15.166664123535156 Q 162.66665649414062 14.666664123535156 162.16665649414062 13.666664123535156 Q 161.66665649414062 12.666664123535156 159.16665649414062 11.666664123535156 Q 156.66665649414062 10.666664123535156 152.16665649414062 9.666664123535156 Q 147.66665649414062 8.666664123535156 144.16665649414062 8.666664123535156 Q 140.66665649414062 8.666664123535156 135.16665649414062 7.166664123535156 Q 129.66665649414062 5.666664123535156 126.16665649414062 3.6666641235351562 Q 122.66665649414062 1.6666641235351562 122.16665649414062 0.6666641235351562 Q 121.66665649414062 -0.33333587646484375 121.16665649414062 -1.3333358764648438 Q 120.66665649414062 -2.3333358764648438 120.16665649414062 -3.8333358764648438 Q 119.66665649414062 -5.333335876464844 120.66665649414062 -6.833335876464844 Q 121.66665649414062 -8.333335876464844 122.66665649414062 -9.833335876464844 Q 123.66665649414062 -11.333335876464844 123.66665649414062 -12.333335876464844 Q 123.66665649414062 -13.333335876464844 123.16665649414062 -12.333335876464844 Q 122.66665649414062 -11.333335876464844 119.66665649414062 -8.333335876464844 Q 116.66665649414062 -5.333335876464844 115.16665649414062 -4.333335876464844 Q 113.66665649414062 -3.3333358764648438 105.66665649414062 1.6666641235351562 Q 97.66665649414062 6.666664123535156 90.16665649414062 12.166664123535156 Q 82.66665649414062 17.666664123535156 75.66665649414062 23.166664123535156 Q 68.66665649414062 28.666664123535156 65.16665649414062 31.666664123535156 Q 61.666656494140625 34.666664123535156 60.666656494140625 36.666664123535156 Q 59.666656494140625 38.666664123535156 59.666656494140625 41.166664123535156 Q 59.666656494140625 43.666664123535156 61.666656494140625 45.166664123535156 Q 63.666656494140625 46.666664123535156 68.66665649414062 46.666664123535156 Q 73.66665649414062 46.666664123535156 85.66665649414062 46.666664123535156 Q 97.66665649414062 46.666664123535156 111.66665649414062 46.666664123535156 Q 125.66665649414062 46.666664123535156 134.66665649414062 46.666664123535156 Q 143.66665649414062 46.666664123535156 145.16665649414062 47.166664123535156 Q 146.66665649414062 47.666664123535156 146.66665649414062 50.166664123535156 Q 146.66665649414062 52.666664123535156 143.66665649414062 57.666664123535156 Q 140.66665649414062 62.666664123535156 133.66665649414062 69.66666412353516 Q 126.66665649414062 76.66666412353516 109.16665649414062 88.66666412353516 Q 91.66665649414062 100.66666412353516 73.66665649414062 111.66666412353516 Q 55.666656494140625 122.66666412353516 26.666656494140625 137.66666412353516 Q -2.333343505859375 152.66666412353516 -16.333343505859375 161.66666412353516 Q -30.333343505859375 170.66666412353516 -35.833343505859375 177.16666412353516 Q -41.333343505859375 183.66666412353516 -42.333343505859375 188.66666412353516 Q -43.333343505859375 193.66666412353516 -39.833343505859375 198.16666412353516 Q -36.333343505859375 202.66666412353516 -15.833343505859375 205.66666412353516 Q 4.666656494140625 208.66666412353516 37.666656494140625 209.66666412353516 Q 70.66665649414062 210.66666412353516 118.16665649414062 210.66666412353516 Q 165.66665649414062 210.66666412353516 215.66665649414062 210.66666412353516 Q 265.6666564941406 210.66666412353516 302.1666564941406 210.66666412353516 Q 338.6666564941406 210.66666412353516 356.1666564941406 210.66666412353516 Q 373.6666564941406 210.66666412353516 380.6666564941406 212.66666412353516 Q 387.6666564941406 214.66666412353516 388.1666564941406 216.66666412353516 Q 388.6666564941406 218.66666412353516 385.1666564941406 225.66666412353516 Q 381.6666564941406 232.66666412353516 373.6666564941406 239.66666412353516 Q 365.6666564941406 246.66666412353516 352.1666564941406 257.16666412353516 Q 338.6666564941406 267.66666412353516 327.1666564941406 276.16666412353516 Q 315.6666564941406 284.66666412353516 307.1666564941406 290.66666412353516 Q 298.6666564941406 296.66666412353516 297.1666564941406 298.66666412353516 Q 295.6666564941406 300.66666412353516 296.6666564941406 302.16666412353516 Q 297.6666564941406 303.66666412353516 299.6666564941406 306.16666412353516 Q 301.6666564941406 308.66666412353516 307.1666564941406 311.66666412353516 Q 312.6666564941406 314.66666412353516 327.6666564941406 321.16666412353516 Q 342.6666564941406 327.66666412353516 365.1666564941406 332.16666412353516 Q 387.6666564941406 336.66666412353516 411.1666564941406 338.16666412353516 Q 434.6666564941406 339.66666412353516 456.6666564941406 339.66666412353516 Q 478.6666564941406 339.66666412353516 503.1666564941406 340.66666412353516 Q 527.6666564941406 341.66666412353516 537.6666564941406 344.16666412353516 Q 547.6666564941406 346.66666412353516 556.1666564941406 350.16666412353516 Q 564.6666564941406 353.66666412353516 570.1666564941406 356.16666412353516 Q 575.6666564941406 358.66666412353516 576.1666564941406 359.66666412353516 Q 576.6666564941406 360.66666412353516 576.1666564941406 361.66666412353516 Q 575.6666564941406 362.66666412353516 573.6666564941406 364.66666412353516 Q 571.6666564941406 366.66666412353516 566.6666564941406 370.16666412353516 Q 561.6666564941406 373.66666412353516 559.1666564941406 377.16666412353516 Q 556.6666564941406 380.66666412353516 554.6666564941406 384.66666412353516 Q 552.6666564941406 388.66666412353516 551.6666564941406 391.66666412353516 Q 550.6666564941406 394.66666412353516 549.1666564941406 400.66666412353516 Q 547.6666564941406 406.66666412353516 548.1666564941406 410.66666412353516 Q 548.6666564941406 414.66666412353516 549.6666564941406 417.66666412353516 Q 550.6666564941406 420.66666412353516 553.6666564941406 425.16666412353516 Q 556.6666564941406 429.66666412353516 561.1666564941406 434.16666412353516 Q 565.6666564941406 438.66666412353516 568.1666564941406 441.16666412353516 Q 570.6666564941406 443.66666412353516 572.1666564941406 444.16666412353516 Q 573.6666564941406 444.66666412353516 574.1666564941406 445.16666412353516 Q 574.6666564941406 445.66666412353516 575.6666564941406 446.66666412353516 Q 576.6666564941406 447.66666412353516 578.1666564941406 448.16666412353516 Q 579.6666564941406 448.66666412353516 580.6666564941406 449.16666412353516 Q 581.6666564941406 449.66666412353516 590.6666564941406 450.66666412353516 Q 599.6666564941406 451.66666412353516 605.1666564941406 451.66666412353516 Q 610.6666564941406 451.66666412353516 613.1666564941406 451.66666412353516 Q 615.6666564941406 451.66666412353516 616.1666564941406 451.66666412353516 Q 616.6666564941406 451.66666412353516 617.1666564941406 451.66666412353516 L 617.6676564941406 451.66666412353516" stroke-linecap="round" />
</g>
</svg>